<?xml version="1.0" encoding="utf-8" standalone="no"?>
<!DOCTYPE svg PUBLIC "-//W3C//DTD SVG 1.1//EN"
  "http://www.w3.org/Graphics/SVG/1.1/DTD/svg11.dtd">
<svg xmlns:xlink="http://www.w3.org/1999/xlink" width="720pt" height="432pt" viewBox="0 0 720 432" xmlns="http://www.w3.org/2000/svg" version="1.1">
 <metadata>
  <rdf:RDF xmlns:dc="http://purl.org/dc/elements/1.1/" xmlns:cc="http://creativecommons.org/ns#" xmlns:rdf="http://www.w3.org/1999/02/22-rdf-syntax-ns#">
   <cc:Work>
    <dc:type rdf:resource="http://purl.org/dc/dcmitype/StillImage"/>
    <dc:date>2024-05-08T20:42:24.310800</dc:date>
    <dc:format>image/svg+xml</dc:format>
    <dc:creator>
     <cc:Agent>
      <dc:title>Matplotlib v3.5.1, https://matplotlib.org/</dc:title>
     </cc:Agent>
    </dc:creator>
   </cc:Work>
  </rdf:RDF>
 </metadata>
 <defs>
  <style type="text/css">*{stroke-linejoin: round; stroke-linecap: butt}</style>
 </defs>
 <g id="figure_1">
  <g id="patch_1">
   <path d="M 0 432 
L 720 432 
L 720 0 
L 0 0 
z
" style="fill: #ffffff"/>
  </g>
  <g id="axes_1">
   <g id="patch_2">
    <path d="M 90 144.24 
L 648 144.24 
L 648 51.84 
L 90 51.84 
z
" style="fill: #ffffff"/>
   </g>
   <g id="matplotlib.axis_1">
    <g id="xtick_1">
     <g id="line2d_1">
      <path d="M 90 144.24 
L 90 51.84 
" clip-path="url(#pabc0d6f69a)" style="fill: none; stroke: #b0b0b0; stroke-width: 0.8; stroke-linecap: square"/>
     </g>
     <g id="line2d_2">
      <defs>
       <path id="m40f04ce880" d="M 0 0 
L 0 3.5 
" style="stroke: #000000; stroke-width: 0.8"/>
      </defs>
      <g>
       <use xlink:href="#m40f04ce880" x="90" y="144.24" style="stroke: #000000; stroke-width: 0.8"/>
      </g>
     </g>
     <g id="text_1">
      <!-- 0 -->
      <g transform="translate(85.54625 161.877813)scale(0.14 -0.14)">
       <defs>
        <path id="DejaVuSans-30" d="M 2034 4250 
Q 1547 4250 1301 3770 
Q 1056 3291 1056 2328 
Q 1056 1369 1301 889 
Q 1547 409 2034 409 
Q 2525 409 2770 889 
Q 3016 1369 3016 2328 
Q 3016 3291 2770 3770 
Q 2525 4250 2034 4250 
z
M 2034 4750 
Q 2819 4750 3233 4129 
Q 3647 3509 3647 2328 
Q 3647 1150 3233 529 
Q 2819 -91 2034 -91 
Q 1250 -91 836 529 
Q 422 1150 422 2328 
Q 422 3509 836 4129 
Q 1250 4750 2034 4750 
z
" transform="scale(0.015625)"/>
       </defs>
       <use xlink:href="#DejaVuSans-30"/>
      </g>
     </g>
    </g>
    <g id="xtick_2">
     <g id="line2d_3">
      <path d="M 201.6 144.24 
L 201.6 51.84 
" clip-path="url(#pabc0d6f69a)" style="fill: none; stroke: #b0b0b0; stroke-width: 0.8; stroke-linecap: square"/>
     </g>
     <g id="line2d_4">
      <g>
       <use xlink:href="#m40f04ce880" x="201.6" y="144.24" style="stroke: #000000; stroke-width: 0.8"/>
      </g>
     </g>
     <g id="text_2">
      <!-- 2 -->
      <g transform="translate(197.14625 161.877813)scale(0.14 -0.14)">
       <defs>
        <path id="DejaVuSans-32" d="M 1228 531 
L 3431 531 
L 3431 0 
L 469 0 
L 469 531 
Q 828 903 1448 1529 
Q 2069 2156 2228 2338 
Q 2531 2678 2651 2914 
Q 2772 3150 2772 3378 
Q 2772 3750 2511 3984 
Q 2250 4219 1831 4219 
Q 1534 4219 1204 4116 
Q 875 4013 500 3803 
L 500 4441 
Q 881 4594 1212 4672 
Q 1544 4750 1819 4750 
Q 2544 4750 2975 4387 
Q 3406 4025 3406 3419 
Q 3406 3131 3298 2873 
Q 3191 2616 2906 2266 
Q 2828 2175 2409 1742 
Q 1991 1309 1228 531 
z
" transform="scale(0.015625)"/>
       </defs>
       <use xlink:href="#DejaVuSans-32"/>
      </g>
     </g>
    </g>
    <g id="xtick_3">
     <g id="line2d_5">
      <path d="M 313.2 144.24 
L 313.2 51.84 
" clip-path="url(#pabc0d6f69a)" style="fill: none; stroke: #b0b0b0; stroke-width: 0.8; stroke-linecap: square"/>
     </g>
     <g id="line2d_6">
      <g>
       <use xlink:href="#m40f04ce880" x="313.2" y="144.24" style="stroke: #000000; stroke-width: 0.8"/>
      </g>
     </g>
     <g id="text_3">
      <!-- 4 -->
      <g transform="translate(308.74625 161.877813)scale(0.14 -0.14)">
       <defs>
        <path id="DejaVuSans-34" d="M 2419 4116 
L 825 1625 
L 2419 1625 
L 2419 4116 
z
M 2253 4666 
L 3047 4666 
L 3047 1625 
L 3713 1625 
L 3713 1100 
L 3047 1100 
L 3047 0 
L 2419 0 
L 2419 1100 
L 313 1100 
L 313 1709 
L 2253 4666 
z
" transform="scale(0.015625)"/>
       </defs>
       <use xlink:href="#DejaVuSans-34"/>
      </g>
     </g>
    </g>
    <g id="xtick_4">
     <g id="line2d_7">
      <path d="M 424.8 144.24 
L 424.8 51.84 
" clip-path="url(#pabc0d6f69a)" style="fill: none; stroke: #b0b0b0; stroke-width: 0.8; stroke-linecap: square"/>
     </g>
     <g id="line2d_8">
      <g>
       <use xlink:href="#m40f04ce880" x="424.8" y="144.24" style="stroke: #000000; stroke-width: 0.8"/>
      </g>
     </g>
     <g id="text_4">
      <!-- 6 -->
      <g transform="translate(420.34625 161.877813)scale(0.14 -0.14)">
       <defs>
        <path id="DejaVuSans-36" d="M 2113 2584 
Q 1688 2584 1439 2293 
Q 1191 2003 1191 1497 
Q 1191 994 1439 701 
Q 1688 409 2113 409 
Q 2538 409 2786 701 
Q 3034 994 3034 1497 
Q 3034 2003 2786 2293 
Q 2538 2584 2113 2584 
z
M 3366 4563 
L 3366 3988 
Q 3128 4100 2886 4159 
Q 2644 4219 2406 4219 
Q 1781 4219 1451 3797 
Q 1122 3375 1075 2522 
Q 1259 2794 1537 2939 
Q 1816 3084 2150 3084 
Q 2853 3084 3261 2657 
Q 3669 2231 3669 1497 
Q 3669 778 3244 343 
Q 2819 -91 2113 -91 
Q 1303 -91 875 529 
Q 447 1150 447 2328 
Q 447 3434 972 4092 
Q 1497 4750 2381 4750 
Q 2619 4750 2861 4703 
Q 3103 4656 3366 4563 
z
" transform="scale(0.015625)"/>
       </defs>
       <use xlink:href="#DejaVuSans-36"/>
      </g>
     </g>
    </g>
    <g id="xtick_5">
     <g id="line2d_9">
      <path d="M 536.4 144.24 
L 536.4 51.84 
" clip-path="url(#pabc0d6f69a)" style="fill: none; stroke: #b0b0b0; stroke-width: 0.8; stroke-linecap: square"/>
     </g>
     <g id="line2d_10">
      <g>
       <use xlink:href="#m40f04ce880" x="536.4" y="144.24" style="stroke: #000000; stroke-width: 0.8"/>
      </g>
     </g>
     <g id="text_5">
      <!-- 8 -->
      <g transform="translate(531.94625 161.877813)scale(0.14 -0.14)">
       <defs>
        <path id="DejaVuSans-38" d="M 2034 2216 
Q 1584 2216 1326 1975 
Q 1069 1734 1069 1313 
Q 1069 891 1326 650 
Q 1584 409 2034 409 
Q 2484 409 2743 651 
Q 3003 894 3003 1313 
Q 3003 1734 2745 1975 
Q 2488 2216 2034 2216 
z
M 1403 2484 
Q 997 2584 770 2862 
Q 544 3141 544 3541 
Q 544 4100 942 4425 
Q 1341 4750 2034 4750 
Q 2731 4750 3128 4425 
Q 3525 4100 3525 3541 
Q 3525 3141 3298 2862 
Q 3072 2584 2669 2484 
Q 3125 2378 3379 2068 
Q 3634 1759 3634 1313 
Q 3634 634 3220 271 
Q 2806 -91 2034 -91 
Q 1263 -91 848 271 
Q 434 634 434 1313 
Q 434 1759 690 2068 
Q 947 2378 1403 2484 
z
M 1172 3481 
Q 1172 3119 1398 2916 
Q 1625 2713 2034 2713 
Q 2441 2713 2670 2916 
Q 2900 3119 2900 3481 
Q 2900 3844 2670 4047 
Q 2441 4250 2034 4250 
Q 1625 4250 1398 4047 
Q 1172 3844 1172 3481 
z
" transform="scale(0.015625)"/>
       </defs>
       <use xlink:href="#DejaVuSans-38"/>
      </g>
     </g>
    </g>
    <g id="xtick_6">
     <g id="line2d_11">
      <path d="M 648 144.24 
L 648 51.84 
" clip-path="url(#pabc0d6f69a)" style="fill: none; stroke: #b0b0b0; stroke-width: 0.8; stroke-linecap: square"/>
     </g>
     <g id="line2d_12">
      <g>
       <use xlink:href="#m40f04ce880" x="648" y="144.24" style="stroke: #000000; stroke-width: 0.8"/>
      </g>
     </g>
     <g id="text_6">
      <!-- 10 -->
      <g transform="translate(639.0925 161.877813)scale(0.14 -0.14)">
       <defs>
        <path id="DejaVuSans-31" d="M 794 531 
L 1825 531 
L 1825 4091 
L 703 3866 
L 703 4441 
L 1819 4666 
L 2450 4666 
L 2450 531 
L 3481 531 
L 3481 0 
L 794 0 
L 794 531 
z
" transform="scale(0.015625)"/>
       </defs>
       <use xlink:href="#DejaVuSans-31"/>
       <use xlink:href="#DejaVuSans-30" x="63.623047"/>
      </g>
     </g>
    </g>
   </g>
   <g id="matplotlib.axis_2">
    <g id="ytick_1">
     <g id="line2d_13">
      <path d="M 90 143.031951 
L 648 143.031951 
" clip-path="url(#pabc0d6f69a)" style="fill: none; stroke: #b0b0b0; stroke-width: 0.8; stroke-linecap: square"/>
     </g>
     <g id="line2d_14">
      <defs>
       <path id="m9eef8fe685" d="M 0 0 
L -3.5 0 
" style="stroke: #000000; stroke-width: 0.8"/>
      </defs>
      <g>
       <use xlink:href="#m9eef8fe685" x="90" y="143.031951" style="stroke: #000000; stroke-width: 0.8"/>
      </g>
     </g>
     <g id="text_7">
      <!-- 0.3 -->
      <g transform="translate(60.735625 148.350857)scale(0.14 -0.14)">
       <defs>
        <path id="DejaVuSans-2e" d="M 684 794 
L 1344 794 
L 1344 0 
L 684 0 
L 684 794 
z
" transform="scale(0.015625)"/>
        <path id="DejaVuSans-33" d="M 2597 2516 
Q 3050 2419 3304 2112 
Q 3559 1806 3559 1356 
Q 3559 666 3084 287 
Q 2609 -91 1734 -91 
Q 1441 -91 1130 -33 
Q 819 25 488 141 
L 488 750 
Q 750 597 1062 519 
Q 1375 441 1716 441 
Q 2309 441 2620 675 
Q 2931 909 2931 1356 
Q 2931 1769 2642 2001 
Q 2353 2234 1838 2234 
L 1294 2234 
L 1294 2753 
L 1863 2753 
Q 2328 2753 2575 2939 
Q 2822 3125 2822 3475 
Q 2822 3834 2567 4026 
Q 2313 4219 1838 4219 
Q 1578 4219 1281 4162 
Q 984 4106 628 3988 
L 628 4550 
Q 988 4650 1302 4700 
Q 1616 4750 1894 4750 
Q 2613 4750 3031 4423 
Q 3450 4097 3450 3541 
Q 3450 3153 3228 2886 
Q 3006 2619 2597 2516 
z
" transform="scale(0.015625)"/>
       </defs>
       <use xlink:href="#DejaVuSans-30"/>
       <use xlink:href="#DejaVuSans-2e" x="63.623047"/>
       <use xlink:href="#DejaVuSans-33" x="95.410156"/>
      </g>
     </g>
    </g>
    <g id="ytick_2">
     <g id="line2d_15">
      <path d="M 90 99.594804 
L 648 99.594804 
" clip-path="url(#pabc0d6f69a)" style="fill: none; stroke: #b0b0b0; stroke-width: 0.8; stroke-linecap: square"/>
     </g>
     <g id="line2d_16">
      <g>
       <use xlink:href="#m9eef8fe685" x="90" y="99.594804" style="stroke: #000000; stroke-width: 0.8"/>
      </g>
     </g>
     <g id="text_8">
      <!-- 0.4 -->
      <g transform="translate(60.735625 104.913711)scale(0.14 -0.14)">
       <use xlink:href="#DejaVuSans-30"/>
       <use xlink:href="#DejaVuSans-2e" x="63.623047"/>
       <use xlink:href="#DejaVuSans-34" x="95.410156"/>
      </g>
     </g>
    </g>
    <g id="ytick_3">
     <g id="line2d_17">
      <path d="M 90 56.157658 
L 648 56.157658 
" clip-path="url(#pabc0d6f69a)" style="fill: none; stroke: #b0b0b0; stroke-width: 0.8; stroke-linecap: square"/>
     </g>
     <g id="line2d_18">
      <g>
       <use xlink:href="#m9eef8fe685" x="90" y="56.157658" style="stroke: #000000; stroke-width: 0.8"/>
      </g>
     </g>
     <g id="text_9">
      <!-- 0.5 -->
      <g transform="translate(60.735625 61.476564)scale(0.14 -0.14)">
       <defs>
        <path id="DejaVuSans-35" d="M 691 4666 
L 3169 4666 
L 3169 4134 
L 1269 4134 
L 1269 2991 
Q 1406 3038 1543 3061 
Q 1681 3084 1819 3084 
Q 2600 3084 3056 2656 
Q 3513 2228 3513 1497 
Q 3513 744 3044 326 
Q 2575 -91 1722 -91 
Q 1428 -91 1123 -41 
Q 819 9 494 109 
L 494 744 
Q 775 591 1075 516 
Q 1375 441 1709 441 
Q 2250 441 2565 725 
Q 2881 1009 2881 1497 
Q 2881 1984 2565 2268 
Q 2250 2553 1709 2553 
Q 1456 2553 1204 2497 
Q 953 2441 691 2322 
L 691 4666 
z
" transform="scale(0.015625)"/>
       </defs>
       <use xlink:href="#DejaVuSans-30"/>
       <use xlink:href="#DejaVuSans-2e" x="63.623047"/>
       <use xlink:href="#DejaVuSans-35" x="95.410156"/>
      </g>
     </g>
    </g>
    <g id="text_10">
     <!--  x ($m$) -->
     <g transform="translate(53.616094 120.465)rotate(-90)scale(0.15 -0.15)">
      <defs>
       <path id="DejaVuSans-20" transform="scale(0.015625)"/>
       <path id="DejaVuSans-78" d="M 3513 3500 
L 2247 1797 
L 3578 0 
L 2900 0 
L 1881 1375 
L 863 0 
L 184 0 
L 1544 1831 
L 300 3500 
L 978 3500 
L 1906 2253 
L 2834 3500 
L 3513 3500 
z
" transform="scale(0.015625)"/>
       <path id="DejaVuSans-28" d="M 1984 4856 
Q 1566 4138 1362 3434 
Q 1159 2731 1159 2009 
Q 1159 1288 1364 580 
Q 1569 -128 1984 -844 
L 1484 -844 
Q 1016 -109 783 600 
Q 550 1309 550 2009 
Q 550 2706 781 3412 
Q 1013 4119 1484 4856 
L 1984 4856 
z
" transform="scale(0.015625)"/>
       <path id="DejaVuSans-Oblique-6d" d="M 5747 2113 
L 5338 0 
L 4763 0 
L 5166 2094 
Q 5191 2228 5203 2325 
Q 5216 2422 5216 2491 
Q 5216 2772 5059 2928 
Q 4903 3084 4622 3084 
Q 4203 3084 3875 2770 
Q 3547 2456 3450 1953 
L 3066 0 
L 2491 0 
L 2900 2094 
Q 2925 2209 2937 2307 
Q 2950 2406 2950 2484 
Q 2950 2769 2794 2926 
Q 2638 3084 2363 3084 
Q 1938 3084 1609 2770 
Q 1281 2456 1184 1953 
L 800 0 
L 225 0 
L 909 3500 
L 1484 3500 
L 1375 2956 
Q 1609 3263 1923 3423 
Q 2238 3584 2597 3584 
Q 2978 3584 3223 3384 
Q 3469 3184 3519 2828 
Q 3781 3197 4126 3390 
Q 4472 3584 4856 3584 
Q 5306 3584 5551 3325 
Q 5797 3066 5797 2591 
Q 5797 2488 5784 2364 
Q 5772 2241 5747 2113 
z
" transform="scale(0.015625)"/>
       <path id="DejaVuSans-29" d="M 513 4856 
L 1013 4856 
Q 1481 4119 1714 3412 
Q 1947 2706 1947 2009 
Q 1947 1309 1714 600 
Q 1481 -109 1013 -844 
L 513 -844 
Q 928 -128 1133 580 
Q 1338 1288 1338 2009 
Q 1338 2731 1133 3434 
Q 928 4138 513 4856 
z
" transform="scale(0.015625)"/>
      </defs>
      <use xlink:href="#DejaVuSans-20" transform="translate(0 0.125)"/>
      <use xlink:href="#DejaVuSans-78" transform="translate(31.787109 0.125)"/>
      <use xlink:href="#DejaVuSans-20" transform="translate(90.966797 0.125)"/>
      <use xlink:href="#DejaVuSans-28" transform="translate(122.753906 0.125)"/>
      <use xlink:href="#DejaVuSans-Oblique-6d" transform="translate(161.767578 0.125)"/>
      <use xlink:href="#DejaVuSans-29" transform="translate(259.179688 0.125)"/>
     </g>
    </g>
   </g>
   <g id="line2d_19">
    <path d="M 90 140.038697 
L 93.7944 139.941398 
L 94.4082 139.887536 
L 95.4684 139.77764 
L 96.1938 139.647763 
L 96.9192 139.540038 
L 100.4904 138.632636 
L 100.7136 138.551409 
L 100.9926 138.448029 
L 101.3832 138.363761 
L 101.7738 138.191749 
L 102.1644 138.104006 
L 102.4434 137.992807 
L 102.7224 137.924611 
L 102.8898 137.832524 
L 103.1688 137.761722 
L 103.4478 137.641401 
L 103.7268 137.567558 
L 103.95 137.442459 
L 105.4566 136.85736 
L 105.7356 136.773527 
L 105.903 136.661024 
L 106.0704 136.576322 
L 106.3494 136.433848 
L 106.6284 136.347843 
L 108.0234 135.740157 
L 108.1908 135.682385 
L 108.414 135.537305 
L 110.0322 134.803218 
L 110.3112 134.706353 
L 110.5902 134.510451 
L 110.8692 134.411849 
L 111.1482 134.245919 
L 111.4272 134.145579 
L 113.157 133.224712 
L 113.436 133.120897 
L 113.715 132.947148 
L 113.7708 132.947148 
L 113.9382 132.772531 
L 114.2172 132.667413 
L 114.4962 132.490624 
L 114.7752 132.384203 
L 114.9426 132.205676 
L 115.2216 132.098387 
L 116.2818 131.52241 
L 116.5608 131.413817 
L 116.8398 131.232684 
L 117.0072 131.160144 
L 117.1746 131.01463 
L 117.4536 130.905603 
L 117.7326 130.723601 
L 118.0116 130.613271 
L 119.6298 129.655047 
L 119.7972 129.574254 
L 119.9646 129.452196 
L 120.132 129.370099 
L 121.1922 128.692914 
L 121.3596 128.606474 
L 122.5314 127.812009 
L 122.5872 127.812009 
L 122.7546 127.587005 
L 122.922 127.54183 
L 123.0894 127.405872 
L 123.2568 127.315522 
L 124.4286 126.488479 
L 124.596 126.395524 
L 125.6562 125.644495 
L 125.8236 125.549802 
L 127.5534 124.224969 
L 127.7208 124.130711 
L 128.6694 123.432676 
L 128.8368 123.341458 
L 129.7296 122.754622 
L 130.9014 121.962328 
L 131.0688 121.875889 
L 132.3522 121.006711 
L 132.408 121.006711 
L 132.5754 120.788222 
L 132.7428 120.744785 
L 132.9102 120.613605 
L 133.0776 120.525862 
L 134.1378 119.820008 
L 134.3052 119.731397 
L 134.4726 119.598045 
L 134.64 119.508998 
L 134.919 119.241426 
L 135.0864 119.19712 
L 135.2538 119.062899 
L 135.4212 118.973418 
L 136.7046 118.076876 
L 136.872 118.031701 
L 137.0394 117.806262 
L 137.2068 117.715913 
L 137.9322 117.260257 
L 137.988 117.260257 
L 138.1554 116.981391 
L 138.3228 116.934479 
L 138.4902 116.792874 
L 138.6576 116.698615 
L 139.8294 115.803375 
L 139.9968 115.756898 
L 140.2758 115.478466 
L 140.4432 115.386379 
L 141.1686 114.928551 
L 141.2244 114.928551 
L 141.3918 114.699638 
L 141.5592 114.607551 
L 142.2846 114.149289 
L 142.3404 114.149289 
L 142.5078 113.918203 
L 142.6752 113.871726 
L 142.8426 113.732292 
L 143.01 113.638902 
L 144.1818 112.795353 
L 144.3492 112.701963 
L 145.4094 111.956147 
L 145.5768 111.862758 
L 146.637 111.109123 
L 146.8044 111.013996 
L 146.9718 110.822438 
L 147.1392 110.726442 
L 148.1994 109.944139 
L 148.3668 109.845102 
L 149.5386 108.951166 
L 149.706 108.851695 
L 150.6546 108.109354 
L 150.822 108.011186 
L 150.9894 107.864368 
L 151.1568 107.767069 
L 151.3242 107.573339 
L 151.4916 107.476909 
L 152.217 106.999969 
L 152.2728 106.999969 
L 152.4402 106.716324 
L 152.6076 106.668978 
L 152.775 106.527807 
L 152.9424 106.433983 
L 154.0026 105.67948 
L 154.17 105.584352 
L 154.3374 105.441879 
L 154.5048 105.346317 
L 154.728 105.155193 
L 155.565 104.576176 
L 155.6208 104.576176 
L 155.7882 104.331191 
L 155.9556 104.282107 
L 156.123 104.133552 
L 156.2904 104.034515 
L 156.4578 103.885091 
L 156.6252 103.784751 
L 157.5738 103.07716 
L 157.7412 102.975083 
L 158.913 102.037709 
L 158.9688 102.037709 
L 159.1362 101.773612 
L 159.3036 101.721053 
L 159.471 101.562507 
L 159.6384 101.456955 
L 160.6986 100.557372 
L 160.866 100.452254 
L 161.9262 99.568308 
L 162.0936 99.465796 
L 162.3726 99.160867 
L 162.54 99.11048 
L 162.7074 98.958885 
L 162.8748 98.857676 
L 163.7118 98.197431 
L 163.8792 98.095788 
L 164.8278 97.337376 
L 164.9952 97.237036 
L 165.4974 96.887801 
L 165.5532 96.887801 
L 165.7206 96.639775 
L 165.888 96.590691 
L 166.0554 96.443874 
L 166.2228 96.34614 
L 166.3902 96.200626 
L 166.5576 96.10463 
L 167.3946 95.493469 
L 167.562 95.402685 
L 168.399 94.835831 
L 168.5664 94.752866 
L 168.7338 94.630373 
L 168.9012 94.54958 
L 169.0686 94.3906 
L 169.236 94.312413 
L 169.9614 93.926257 
L 170.0172 93.926257 
L 170.1846 93.734699 
L 170.352 93.658684 
L 171.5238 92.971943 
L 171.6912 92.895928 
L 173.0862 92.044125 
L 173.142 92.044125 
L 173.3094 91.844749 
L 173.4768 91.76439 
L 174.537 91.114136 
L 174.7044 91.031605 
L 176.0994 90.128547 
L 176.2668 90.038632 
L 176.4342 89.901805 
L 176.49 89.901805 
L 176.6574 89.670285 
L 176.8248 89.623373 
L 176.9922 89.482202 
L 177.1596 89.387509 
L 178.1082 88.712496 
L 178.2756 88.615197 
L 178.443 88.469248 
L 178.6104 88.371949 
L 179.559 87.651327 
L 179.7264 87.60398 
L 180.0054 87.321639 
L 180.1728 87.228249 
L 180.8982 86.761299 
L 180.954 86.761299 
L 181.1214 86.527608 
L 181.2888 86.48113 
L 181.4562 86.340828 
L 181.6236 86.247004 
L 183.0186 85.203643 
L 183.0744 85.203643 
L 183.2418 84.964305 
L 183.4092 84.868743 
L 184.1346 84.384419 
L 184.1904 84.384419 
L 184.3578 84.089915 
L 184.5252 84.040831 
L 184.6926 83.893145 
L 184.86 83.794542 
L 185.0274 83.646856 
L 185.1948 83.597772 
L 185.3622 83.301531 
L 185.5296 83.252012 
L 185.697 83.104326 
L 185.8644 83.005724 
L 186.813 82.265989 
L 186.9804 82.167387 
L 187.7058 81.623554 
L 187.8732 81.524952 
L 189.045 80.628409 
L 189.2124 80.5272 
L 190.3842 79.585483 
L 190.5516 79.478193 
L 191.3886 78.774511 
L 191.556 78.66505 
L 192.393 77.954418 
L 192.5604 77.844956 
L 193.3974 77.13389 
L 193.5648 77.024429 
L 194.067 76.639576 
L 194.1228 76.639576 
L 194.2902 76.309019 
L 194.4576 76.253854 
L 194.625 76.089227 
L 194.7924 75.9802 
L 195.8526 75.065413 
L 196.02 74.959861 
L 196.857 74.291798 
L 197.0244 74.191024 
L 197.8614 73.542507 
L 198.0288 73.44347 
L 198.9774 72.702867 
L 199.1448 72.605134 
L 200.3166 71.726834 
L 200.484 71.627798 
L 201.4326 70.915429 
L 201.6 70.810745 
L 202.7718 69.826025 
L 202.8276 69.826025 
L 203.1066 69.482003 
L 203.1624 69.482003 
L 203.3298 69.308254 
L 203.3856 69.308254 
L 203.553 69.133637 
L 203.6088 69.133637 
L 203.7762 68.959019 
L 203.832 68.959019 
L 203.9994 68.784402 
L 204.0552 68.784402 
L 204.2784 68.436471 
L 204.7806 68.035546 
L 204.8364 68.035546 
L 205.0038 67.864838 
L 205.0596 67.864838 
L 205.227 67.582931 
L 205.3944 67.526897 
L 205.5618 67.359664 
L 205.6176 67.359664 
L 205.785 67.193299 
L 205.9524 67.082535 
L 207.0126 66.158192 
L 207.18 66.050034 
L 208.2402 65.177382 
L 208.4076 65.066617 
L 208.575 64.789488 
L 208.7424 64.733888 
L 208.9098 64.567524 
L 208.9656 64.567524 
L 209.133 64.400725 
L 209.1888 64.400725 
L 209.3562 64.233927 
L 209.412 64.233927 
L 209.691 63.898592 
L 209.7468 63.898592 
L 209.9142 63.729621 
L 209.97 63.729621 
L 210.1374 63.560217 
L 210.1932 63.560217 
L 210.3606 63.389943 
L 210.4164 63.389943 
L 210.5838 63.219669 
L 210.6396 63.219669 
L 210.807 62.934722 
L 210.9744 62.877819 
L 211.1418 62.707111 
L 211.1976 62.707111 
L 211.365 62.537272 
L 211.4208 62.537272 
L 211.5882 62.368301 
L 211.644 62.368301 
L 211.923 61.975195 
L 212.0904 61.919161 
L 212.2578 61.751494 
L 212.3136 61.751494 
L 212.481 61.584261 
L 212.5368 61.584261 
L 212.7042 61.417896 
L 212.8716 61.307132 
L 213.039 61.086471 
L 213.2064 60.976575 
L 213.7086 60.593894 
L 213.876 60.485301 
L 214.8246 59.679976 
L 214.992 59.574424 
L 215.7174 59.014954 
L 215.8848 58.917654 
L 216.0522 58.773443 
L 216.2196 58.679184 
L 216.387 58.448533 
L 216.5544 58.403359 
L 216.7218 58.270441 
L 216.8892 58.184001 
L 217.7262 57.678393 
L 218.0052 57.573709 
L 218.2842 57.409951 
L 218.4516 57.378676 
L 218.619 57.200584 
L 219.0096 57.091557 
L 219.2886 56.965155 
L 219.456 56.94083 
L 219.6234 56.825287 
L 220.014 56.718866 
L 221.1858 56.40829 
L 221.688 56.330104 
L 221.967 56.265382 
L 222.9156 56.155921 
L 224.8686 56.068178 
L 228.2724 56.173295 
L 229.4442 56.248442 
L 241.5528 56.3566 
L 244.008 56.400906 
L 250.146 56.195883 
L 252.2106 56.162436 
L 648 56.150708 
L 648 56.150708 
" clip-path="url(#pabc0d6f69a)" style="fill: none; stroke: #1f77b4; stroke-width: 3; stroke-linecap: square"/>
   </g>
   <g id="line2d_20">
    <path d="M 90 140.038885 
L 91.8414 138.330138 
L 96.2496 131.160355 
L 101.4948 122.975804 
L 106.461 114.933121 
L 111.2598 107.527587 
L 114.6636 102.61714 
L 118.458 97.460027 
L 124.1496 90.190068 
L 128.9484 84.426557 
L 132.5196 80.536382 
L 136.6488 76.416559 
L 141.7824 71.573288 
L 144.2376 69.580645 
L 145.9674 68.490131 
L 147.9762 67.513413 
L 151.5474 66.052872 
L 166.8366 60.019852 
L 173.2536 57.832299 
L 175.8762 57.110228 
L 178.6104 56.586635 
L 182.349 56.262818 
L 187.2036 56.184235 
L 217.3914 56.175343 
L 391.4874 56.047634 
L 648 56.045261 
L 648 56.045261 
" clip-path="url(#pabc0d6f69a)" style="fill: none; stroke: #ff7f0e; stroke-width: 3; stroke-linecap: square"/>
   </g>
   <g id="patch_3">
    <path d="M 90 144.24 
L 90 51.84 
" style="fill: none; stroke: #000000; stroke-width: 0.8; stroke-linejoin: miter; stroke-linecap: square"/>
   </g>
   <g id="patch_4">
    <path d="M 648 144.24 
L 648 51.84 
" style="fill: none; stroke: #000000; stroke-width: 0.8; stroke-linejoin: miter; stroke-linecap: square"/>
   </g>
   <g id="patch_5">
    <path d="M 90 144.24 
L 648 144.24 
" style="fill: none; stroke: #000000; stroke-width: 0.8; stroke-linejoin: miter; stroke-linecap: square"/>
   </g>
   <g id="patch_6">
    <path d="M 90 51.84 
L 648 51.84 
" style="fill: none; stroke: #000000; stroke-width: 0.8; stroke-linejoin: miter; stroke-linecap: square"/>
   </g>
   <g id="legend_1">
    <g id="patch_7">
     <path d="M 495.79875 96.6675 
L 639.6 96.6675 
Q 642 96.6675 642 94.2675 
L 642 60.24 
Q 642 57.84 639.6 57.84 
L 495.79875 57.84 
Q 493.39875 57.84 493.39875 60.24 
L 493.39875 94.2675 
Q 493.39875 96.6675 495.79875 96.6675 
z
" style="fill: #ffffff; opacity: 0.8; stroke: #cccccc; stroke-linejoin: miter"/>
    </g>
    <g id="line2d_21">
     <path d="M 498.19875 67.558125 
L 510.19875 67.558125 
L 522.19875 67.558125 
" style="fill: none; stroke: #1f77b4; stroke-width: 3; stroke-linecap: square"/>
    </g>
    <g id="text_11">
     <!-- Proposed method -->
     <g transform="translate(531.79875 71.758125)scale(0.12 -0.12)">
      <defs>
       <path id="DejaVuSans-50" d="M 1259 4147 
L 1259 2394 
L 2053 2394 
Q 2494 2394 2734 2622 
Q 2975 2850 2975 3272 
Q 2975 3691 2734 3919 
Q 2494 4147 2053 4147 
L 1259 4147 
z
M 628 4666 
L 2053 4666 
Q 2838 4666 3239 4311 
Q 3641 3956 3641 3272 
Q 3641 2581 3239 2228 
Q 2838 1875 2053 1875 
L 1259 1875 
L 1259 0 
L 628 0 
L 628 4666 
z
" transform="scale(0.015625)"/>
       <path id="DejaVuSans-72" d="M 2631 2963 
Q 2534 3019 2420 3045 
Q 2306 3072 2169 3072 
Q 1681 3072 1420 2755 
Q 1159 2438 1159 1844 
L 1159 0 
L 581 0 
L 581 3500 
L 1159 3500 
L 1159 2956 
Q 1341 3275 1631 3429 
Q 1922 3584 2338 3584 
Q 2397 3584 2469 3576 
Q 2541 3569 2628 3553 
L 2631 2963 
z
" transform="scale(0.015625)"/>
       <path id="DejaVuSans-6f" d="M 1959 3097 
Q 1497 3097 1228 2736 
Q 959 2375 959 1747 
Q 959 1119 1226 758 
Q 1494 397 1959 397 
Q 2419 397 2687 759 
Q 2956 1122 2956 1747 
Q 2956 2369 2687 2733 
Q 2419 3097 1959 3097 
z
M 1959 3584 
Q 2709 3584 3137 3096 
Q 3566 2609 3566 1747 
Q 3566 888 3137 398 
Q 2709 -91 1959 -91 
Q 1206 -91 779 398 
Q 353 888 353 1747 
Q 353 2609 779 3096 
Q 1206 3584 1959 3584 
z
" transform="scale(0.015625)"/>
       <path id="DejaVuSans-70" d="M 1159 525 
L 1159 -1331 
L 581 -1331 
L 581 3500 
L 1159 3500 
L 1159 2969 
Q 1341 3281 1617 3432 
Q 1894 3584 2278 3584 
Q 2916 3584 3314 3078 
Q 3713 2572 3713 1747 
Q 3713 922 3314 415 
Q 2916 -91 2278 -91 
Q 1894 -91 1617 61 
Q 1341 213 1159 525 
z
M 3116 1747 
Q 3116 2381 2855 2742 
Q 2594 3103 2138 3103 
Q 1681 3103 1420 2742 
Q 1159 2381 1159 1747 
Q 1159 1113 1420 752 
Q 1681 391 2138 391 
Q 2594 391 2855 752 
Q 3116 1113 3116 1747 
z
" transform="scale(0.015625)"/>
       <path id="DejaVuSans-73" d="M 2834 3397 
L 2834 2853 
Q 2591 2978 2328 3040 
Q 2066 3103 1784 3103 
Q 1356 3103 1142 2972 
Q 928 2841 928 2578 
Q 928 2378 1081 2264 
Q 1234 2150 1697 2047 
L 1894 2003 
Q 2506 1872 2764 1633 
Q 3022 1394 3022 966 
Q 3022 478 2636 193 
Q 2250 -91 1575 -91 
Q 1294 -91 989 -36 
Q 684 19 347 128 
L 347 722 
Q 666 556 975 473 
Q 1284 391 1588 391 
Q 1994 391 2212 530 
Q 2431 669 2431 922 
Q 2431 1156 2273 1281 
Q 2116 1406 1581 1522 
L 1381 1569 
Q 847 1681 609 1914 
Q 372 2147 372 2553 
Q 372 3047 722 3315 
Q 1072 3584 1716 3584 
Q 2034 3584 2315 3537 
Q 2597 3491 2834 3397 
z
" transform="scale(0.015625)"/>
       <path id="DejaVuSans-65" d="M 3597 1894 
L 3597 1613 
L 953 1613 
Q 991 1019 1311 708 
Q 1631 397 2203 397 
Q 2534 397 2845 478 
Q 3156 559 3463 722 
L 3463 178 
Q 3153 47 2828 -22 
Q 2503 -91 2169 -91 
Q 1331 -91 842 396 
Q 353 884 353 1716 
Q 353 2575 817 3079 
Q 1281 3584 2069 3584 
Q 2775 3584 3186 3129 
Q 3597 2675 3597 1894 
z
M 3022 2063 
Q 3016 2534 2758 2815 
Q 2500 3097 2075 3097 
Q 1594 3097 1305 2825 
Q 1016 2553 972 2059 
L 3022 2063 
z
" transform="scale(0.015625)"/>
       <path id="DejaVuSans-64" d="M 2906 2969 
L 2906 4863 
L 3481 4863 
L 3481 0 
L 2906 0 
L 2906 525 
Q 2725 213 2448 61 
Q 2172 -91 1784 -91 
Q 1150 -91 751 415 
Q 353 922 353 1747 
Q 353 2572 751 3078 
Q 1150 3584 1784 3584 
Q 2172 3584 2448 3432 
Q 2725 3281 2906 2969 
z
M 947 1747 
Q 947 1113 1208 752 
Q 1469 391 1925 391 
Q 2381 391 2643 752 
Q 2906 1113 2906 1747 
Q 2906 2381 2643 2742 
Q 2381 3103 1925 3103 
Q 1469 3103 1208 2742 
Q 947 2381 947 1747 
z
" transform="scale(0.015625)"/>
       <path id="DejaVuSans-6d" d="M 3328 2828 
Q 3544 3216 3844 3400 
Q 4144 3584 4550 3584 
Q 5097 3584 5394 3201 
Q 5691 2819 5691 2113 
L 5691 0 
L 5113 0 
L 5113 2094 
Q 5113 2597 4934 2840 
Q 4756 3084 4391 3084 
Q 3944 3084 3684 2787 
Q 3425 2491 3425 1978 
L 3425 0 
L 2847 0 
L 2847 2094 
Q 2847 2600 2669 2842 
Q 2491 3084 2119 3084 
Q 1678 3084 1418 2786 
Q 1159 2488 1159 1978 
L 1159 0 
L 581 0 
L 581 3500 
L 1159 3500 
L 1159 2956 
Q 1356 3278 1631 3431 
Q 1906 3584 2284 3584 
Q 2666 3584 2933 3390 
Q 3200 3197 3328 2828 
z
" transform="scale(0.015625)"/>
       <path id="DejaVuSans-74" d="M 1172 4494 
L 1172 3500 
L 2356 3500 
L 2356 3053 
L 1172 3053 
L 1172 1153 
Q 1172 725 1289 603 
Q 1406 481 1766 481 
L 2356 481 
L 2356 0 
L 1766 0 
Q 1100 0 847 248 
Q 594 497 594 1153 
L 594 3053 
L 172 3053 
L 172 3500 
L 594 3500 
L 594 4494 
L 1172 4494 
z
" transform="scale(0.015625)"/>
       <path id="DejaVuSans-68" d="M 3513 2113 
L 3513 0 
L 2938 0 
L 2938 2094 
Q 2938 2591 2744 2837 
Q 2550 3084 2163 3084 
Q 1697 3084 1428 2787 
Q 1159 2491 1159 1978 
L 1159 0 
L 581 0 
L 581 4863 
L 1159 4863 
L 1159 2956 
Q 1366 3272 1645 3428 
Q 1925 3584 2291 3584 
Q 2894 3584 3203 3211 
Q 3513 2838 3513 2113 
z
" transform="scale(0.015625)"/>
      </defs>
      <use xlink:href="#DejaVuSans-50"/>
      <use xlink:href="#DejaVuSans-72" x="58.552734"/>
      <use xlink:href="#DejaVuSans-6f" x="97.416016"/>
      <use xlink:href="#DejaVuSans-70" x="158.597656"/>
      <use xlink:href="#DejaVuSans-6f" x="222.074219"/>
      <use xlink:href="#DejaVuSans-73" x="283.255859"/>
      <use xlink:href="#DejaVuSans-65" x="335.355469"/>
      <use xlink:href="#DejaVuSans-64" x="396.878906"/>
      <use xlink:href="#DejaVuSans-20" x="460.355469"/>
      <use xlink:href="#DejaVuSans-6d" x="492.142578"/>
      <use xlink:href="#DejaVuSans-65" x="589.554688"/>
      <use xlink:href="#DejaVuSans-74" x="651.078125"/>
      <use xlink:href="#DejaVuSans-68" x="690.287109"/>
      <use xlink:href="#DejaVuSans-6f" x="753.666016"/>
      <use xlink:href="#DejaVuSans-64" x="814.847656"/>
     </g>
    </g>
    <g id="line2d_22">
     <path d="M 498.19875 85.171875 
L 510.19875 85.171875 
L 522.19875 85.171875 
" style="fill: none; stroke: #ff7f0e; stroke-width: 3; stroke-linecap: square"/>
    </g>
    <g id="text_12">
     <!-- fddp -->
     <g transform="translate(531.79875 89.371875)scale(0.12 -0.12)">
      <defs>
       <path id="DejaVuSans-66" d="M 2375 4863 
L 2375 4384 
L 1825 4384 
Q 1516 4384 1395 4259 
Q 1275 4134 1275 3809 
L 1275 3500 
L 2222 3500 
L 2222 3053 
L 1275 3053 
L 1275 0 
L 697 0 
L 697 3053 
L 147 3053 
L 147 3500 
L 697 3500 
L 697 3744 
Q 697 4328 969 4595 
Q 1241 4863 1831 4863 
L 2375 4863 
z
" transform="scale(0.015625)"/>
      </defs>
      <use xlink:href="#DejaVuSans-66"/>
      <use xlink:href="#DejaVuSans-64" x="35.205078"/>
      <use xlink:href="#DejaVuSans-64" x="98.681641"/>
      <use xlink:href="#DejaVuSans-70" x="162.158203"/>
     </g>
    </g>
   </g>
  </g>
  <g id="axes_2">
   <g id="patch_8">
    <path d="M 90 264.36 
L 648 264.36 
L 648 171.96 
L 90 171.96 
z
" style="fill: #ffffff"/>
   </g>
   <g id="matplotlib.axis_3">
    <g id="xtick_7">
     <g id="line2d_23">
      <path d="M 90 264.36 
L 90 171.96 
" clip-path="url(#p088239a1a2)" style="fill: none; stroke: #b0b0b0; stroke-width: 0.8; stroke-linecap: square"/>
     </g>
     <g id="line2d_24">
      <g>
       <use xlink:href="#m40f04ce880" x="90" y="264.36" style="stroke: #000000; stroke-width: 0.8"/>
      </g>
     </g>
     <g id="text_13">
      <!-- 0 -->
      <g transform="translate(85.54625 281.997813)scale(0.14 -0.14)">
       <use xlink:href="#DejaVuSans-30"/>
      </g>
     </g>
    </g>
    <g id="xtick_8">
     <g id="line2d_25">
      <path d="M 201.6 264.36 
L 201.6 171.96 
" clip-path="url(#p088239a1a2)" style="fill: none; stroke: #b0b0b0; stroke-width: 0.8; stroke-linecap: square"/>
     </g>
     <g id="line2d_26">
      <g>
       <use xlink:href="#m40f04ce880" x="201.6" y="264.36" style="stroke: #000000; stroke-width: 0.8"/>
      </g>
     </g>
     <g id="text_14">
      <!-- 2 -->
      <g transform="translate(197.14625 281.997813)scale(0.14 -0.14)">
       <use xlink:href="#DejaVuSans-32"/>
      </g>
     </g>
    </g>
    <g id="xtick_9">
     <g id="line2d_27">
      <path d="M 313.2 264.36 
L 313.2 171.96 
" clip-path="url(#p088239a1a2)" style="fill: none; stroke: #b0b0b0; stroke-width: 0.8; stroke-linecap: square"/>
     </g>
     <g id="line2d_28">
      <g>
       <use xlink:href="#m40f04ce880" x="313.2" y="264.36" style="stroke: #000000; stroke-width: 0.8"/>
      </g>
     </g>
     <g id="text_15">
      <!-- 4 -->
      <g transform="translate(308.74625 281.997813)scale(0.14 -0.14)">
       <use xlink:href="#DejaVuSans-34"/>
      </g>
     </g>
    </g>
    <g id="xtick_10">
     <g id="line2d_29">
      <path d="M 424.8 264.36 
L 424.8 171.96 
" clip-path="url(#p088239a1a2)" style="fill: none; stroke: #b0b0b0; stroke-width: 0.8; stroke-linecap: square"/>
     </g>
     <g id="line2d_30">
      <g>
       <use xlink:href="#m40f04ce880" x="424.8" y="264.36" style="stroke: #000000; stroke-width: 0.8"/>
      </g>
     </g>
     <g id="text_16">
      <!-- 6 -->
      <g transform="translate(420.34625 281.997813)scale(0.14 -0.14)">
       <use xlink:href="#DejaVuSans-36"/>
      </g>
     </g>
    </g>
    <g id="xtick_11">
     <g id="line2d_31">
      <path d="M 536.4 264.36 
L 536.4 171.96 
" clip-path="url(#p088239a1a2)" style="fill: none; stroke: #b0b0b0; stroke-width: 0.8; stroke-linecap: square"/>
     </g>
     <g id="line2d_32">
      <g>
       <use xlink:href="#m40f04ce880" x="536.4" y="264.36" style="stroke: #000000; stroke-width: 0.8"/>
      </g>
     </g>
     <g id="text_17">
      <!-- 8 -->
      <g transform="translate(531.94625 281.997813)scale(0.14 -0.14)">
       <use xlink:href="#DejaVuSans-38"/>
      </g>
     </g>
    </g>
    <g id="xtick_12">
     <g id="line2d_33">
      <path d="M 648 264.36 
L 648 171.96 
" clip-path="url(#p088239a1a2)" style="fill: none; stroke: #b0b0b0; stroke-width: 0.8; stroke-linecap: square"/>
     </g>
     <g id="line2d_34">
      <g>
       <use xlink:href="#m40f04ce880" x="648" y="264.36" style="stroke: #000000; stroke-width: 0.8"/>
      </g>
     </g>
     <g id="text_18">
      <!-- 10 -->
      <g transform="translate(639.0925 281.997813)scale(0.14 -0.14)">
       <use xlink:href="#DejaVuSans-31"/>
       <use xlink:href="#DejaVuSans-30" x="63.623047"/>
      </g>
     </g>
    </g>
   </g>
   <g id="matplotlib.axis_4">
    <g id="ytick_4">
     <g id="line2d_35">
      <path d="M 90 260.16 
L 648 260.16 
" clip-path="url(#p088239a1a2)" style="fill: none; stroke: #b0b0b0; stroke-width: 0.8; stroke-linecap: square"/>
     </g>
     <g id="line2d_36">
      <g>
       <use xlink:href="#m9eef8fe685" x="90" y="260.16" style="stroke: #000000; stroke-width: 0.8"/>
      </g>
     </g>
     <g id="text_19">
      <!-- 0.0 -->
      <g transform="translate(60.735625 265.478906)scale(0.14 -0.14)">
       <use xlink:href="#DejaVuSans-30"/>
       <use xlink:href="#DejaVuSans-2e" x="63.623047"/>
       <use xlink:href="#DejaVuSans-30" x="95.410156"/>
      </g>
     </g>
    </g>
    <g id="ytick_5">
     <g id="line2d_37">
      <path d="M 90 218.228349 
L 648 218.228349 
" clip-path="url(#p088239a1a2)" style="fill: none; stroke: #b0b0b0; stroke-width: 0.8; stroke-linecap: square"/>
     </g>
     <g id="line2d_38">
      <g>
       <use xlink:href="#m9eef8fe685" x="90" y="218.228349" style="stroke: #000000; stroke-width: 0.8"/>
      </g>
     </g>
     <g id="text_20">
      <!-- 0.05 -->
      <g transform="translate(51.828125 223.547255)scale(0.14 -0.14)">
       <use xlink:href="#DejaVuSans-30"/>
       <use xlink:href="#DejaVuSans-2e" x="63.623047"/>
       <use xlink:href="#DejaVuSans-30" x="95.410156"/>
       <use xlink:href="#DejaVuSans-35" x="159.033203"/>
      </g>
     </g>
    </g>
    <g id="ytick_6">
     <g id="line2d_39">
      <path d="M 90 176.296697 
L 648 176.296697 
" clip-path="url(#p088239a1a2)" style="fill: none; stroke: #b0b0b0; stroke-width: 0.8; stroke-linecap: square"/>
     </g>
     <g id="line2d_40">
      <g>
       <use xlink:href="#m9eef8fe685" x="90" y="176.296697" style="stroke: #000000; stroke-width: 0.8"/>
      </g>
     </g>
     <g id="text_21">
      <!-- 0.1 -->
      <g transform="translate(60.735625 181.615603)scale(0.14 -0.14)">
       <use xlink:href="#DejaVuSans-30"/>
       <use xlink:href="#DejaVuSans-2e" x="63.623047"/>
       <use xlink:href="#DejaVuSans-31" x="95.410156"/>
      </g>
     </g>
    </g>
    <g id="text_22">
     <!--  y ($m$)  -->
     <g transform="translate(44.678125 242.91)rotate(-90)scale(0.15 -0.15)">
      <defs>
       <path id="DejaVuSans-79" d="M 2059 -325 
Q 1816 -950 1584 -1140 
Q 1353 -1331 966 -1331 
L 506 -1331 
L 506 -850 
L 844 -850 
Q 1081 -850 1212 -737 
Q 1344 -625 1503 -206 
L 1606 56 
L 191 3500 
L 800 3500 
L 1894 763 
L 2988 3500 
L 3597 3500 
L 2059 -325 
z
" transform="scale(0.015625)"/>
      </defs>
      <use xlink:href="#DejaVuSans-20" transform="translate(0 0.125)"/>
      <use xlink:href="#DejaVuSans-79" transform="translate(31.787109 0.125)"/>
      <use xlink:href="#DejaVuSans-20" transform="translate(90.966797 0.125)"/>
      <use xlink:href="#DejaVuSans-28" transform="translate(122.753906 0.125)"/>
      <use xlink:href="#DejaVuSans-Oblique-6d" transform="translate(161.767578 0.125)"/>
      <use xlink:href="#DejaVuSans-29" transform="translate(259.179688 0.125)"/>
      <use xlink:href="#DejaVuSans-20" transform="translate(298.193359 0.125)"/>
     </g>
    </g>
   </g>
   <g id="line2d_41">
    <path d="M 90 260.16 
L 92.1204 260.052169 
L 92.9574 259.908106 
L 93.5712 259.805562 
L 97.7004 258.715706 
L 97.9794 258.603254 
L 98.2584 258.533379 
L 98.4258 258.437674 
L 98.7048 258.364176 
L 98.9838 258.238432 
L 99.3744 258.135053 
L 99.5418 258.029319 
L 99.8208 257.921462 
L 100.0998 257.784002 
L 100.3788 257.699828 
L 101.5506 257.203584 
L 101.718 257.112735 
L 101.997 256.958409 
L 102.276 256.864046 
L 102.555 256.702811 
L 102.7224 256.669903 
L 102.8898 256.536074 
L 103.1688 256.433232 
L 103.4478 256.257119 
L 103.7268 256.148944 
L 103.8942 255.965686 
L 104.0616 255.928677 
L 104.229 255.817164 
L 104.3964 255.742501 
L 105.4566 255.127715 
L 105.624 255.048792 
L 106.9074 254.241574 
L 107.0748 254.162004 
L 107.2422 253.965815 
L 107.4096 253.926994 
L 107.577 253.811171 
L 107.7444 253.734478 
L 108.9162 253.057315 
L 109.0836 252.981804 
L 110.2554 252.302285 
L 110.4228 252.226909 
L 110.5902 252.07619 
L 110.7576 252.000864 
L 111.483 251.624812 
L 111.5388 251.624812 
L 111.7062 251.437126 
L 111.8736 251.362572 
L 112.599 251.000198 
L 112.7664 250.895537 
L 113.0454 250.724624 
L 113.3244 250.623401 
L 115.2774 249.558504 
L 115.5564 249.452669 
L 115.8354 249.27404 
L 116.0028 249.165018 
L 116.8398 248.717188 
L 117.0072 248.640956 
L 117.1746 248.486731 
L 117.342 248.409074 
L 118.0674 248.022632 
L 118.1232 248.022632 
L 118.2906 247.835533 
L 118.5696 247.72542 
L 119.6298 247.148105 
L 119.7972 247.074557 
L 119.9646 246.96218 
L 120.132 246.885781 
L 121.4154 246.115664 
L 121.4712 246.115664 
L 121.6386 245.902316 
L 121.806 245.859126 
L 122.0292 245.684775 
L 123.0894 244.963215 
L 123.2568 244.870714 
L 124.4286 244.02361 
L 124.596 243.927755 
L 125.6562 243.142542 
L 125.8236 243.041655 
L 130.9572 238.316629 
L 131.1246 238.106803 
L 131.1804 238.106803 
L 131.3478 237.893287 
L 131.4036 237.893287 
L 131.571 237.527643 
L 131.7384 237.453256 
L 132.0174 237.000562 
L 132.1848 236.924246 
L 132.3522 236.694629 
L 132.408 236.694629 
L 132.5754 236.310031 
L 132.7428 236.232961 
L 132.9102 236.001163 
L 132.966 236.001163 
L 133.1334 235.768778 
L 133.1892 235.768778 
L 133.3566 235.536225 
L 133.4124 235.536225 
L 133.5798 235.303336 
L 133.6356 235.303336 
L 133.803 234.914714 
L 133.9704 234.836973 
L 134.1378 234.603916 
L 134.1936 234.603916 
L 134.4168 234.29379 
L 135.2538 233.302358 
L 135.3096 233.302358 
L 135.477 233.079533 
L 135.5328 233.079533 
L 135.7002 232.858973 
L 135.756 232.858973 
L 135.9234 232.496935 
L 135.9792 232.496935 
L 136.1466 232.283083 
L 136.2024 232.283083 
L 136.3698 232.071748 
L 136.4256 232.071748 
L 136.6488 231.793322 
L 137.4858 230.914937 
L 137.5416 230.914937 
L 137.709 230.719033 
L 137.7648 230.719033 
L 137.9322 230.525141 
L 137.988 230.525141 
L 138.1554 230.143563 
L 138.3228 230.080749 
L 138.4902 229.894153 
L 138.546 229.894153 
L 138.7134 229.709822 
L 138.7692 229.709822 
L 138.9366 229.527503 
L 138.9924 229.527503 
L 139.1598 229.168736 
L 139.3272 229.109948 
L 139.4946 228.935512 
L 139.5504 228.935512 
L 139.7178 228.764766 
L 139.7736 228.764766 
L 139.941 228.59813 
L 140.1084 228.489191 
L 140.2758 228.276011 
L 140.4432 228.171601 
L 140.9454 227.816356 
L 141.1128 227.717817 
L 142.0614 227.023848 
L 142.2288 226.938559 
L 143.0658 226.425316 
L 143.2332 226.348664 
L 144.405 225.651425 
L 144.5724 225.572677 
L 144.7956 225.415182 
L 145.6326 224.947728 
L 145.6884 224.947728 
L 145.8558 224.753081 
L 146.0232 224.713833 
L 146.1906 224.595083 
L 146.358 224.515497 
L 147.4182 223.872181 
L 147.5856 223.791253 
L 147.753 223.668393 
L 147.9204 223.585033 
L 148.1436 223.414707 
L 148.9806 222.873956 
L 149.0364 222.873956 
L 149.2038 222.635114 
L 149.3712 222.586473 
L 149.5386 222.438957 
L 149.706 222.339495 
L 150.9894 221.287682 
L 151.0452 221.287682 
L 151.3242 220.951222 
L 151.38 220.951222 
L 151.5474 220.780728 
L 151.6032 220.780728 
L 151.7706 220.609479 
L 151.8264 220.609479 
L 151.9938 220.437895 
L 152.0496 220.437895 
L 152.217 220.265891 
L 152.2728 220.265891 
L 152.4402 219.919788 
L 152.6076 219.861922 
L 152.775 219.68757 
L 152.8308 219.68757 
L 152.9982 219.512044 
L 153.054 219.512044 
L 153.2214 219.335512 
L 153.2772 219.335512 
L 153.5562 218.980015 
L 153.612 218.980015 
L 153.7794 218.802141 
L 153.8352 218.802141 
L 154.0026 218.624854 
L 154.0584 218.624854 
L 154.2816 218.389953 
L 155.007 217.761314 
L 155.1744 217.650698 
L 155.3418 217.486745 
L 155.5092 217.378646 
L 156.4578 216.583538 
L 156.6252 216.477954 
L 157.3506 215.900639 
L 157.518 215.797319 
L 158.4666 215.034415 
L 158.634 214.933779 
L 159.471 214.286102 
L 159.6384 214.18815 
L 160.6986 213.3969 
L 160.866 213.309011 
L 161.9262 212.600198 
L 162.0936 212.521115 
L 162.3726 212.291582 
L 162.6516 212.182475 
L 163.4886 211.755863 
L 163.7676 211.663362 
L 164.0466 211.511569 
L 164.3256 211.421751 
L 164.6046 211.242787 
L 164.8836 211.151879 
L 165.1626 210.994636 
L 165.4416 210.895174 
L 167.7852 209.37817 
L 168.0084 209.168596 
L 169.2918 208.076947 
L 169.3476 208.076947 
L 169.515 207.908131 
L 169.5708 207.908131 
L 169.7382 207.737636 
L 169.794 207.737636 
L 169.9614 207.565214 
L 170.0172 207.565214 
L 170.1846 207.274208 
L 170.2404 207.274208 
L 170.4078 207.098011 
L 170.4636 207.098011 
L 170.631 206.921227 
L 170.6868 206.921227 
L 170.8542 206.743772 
L 170.91 206.743772 
L 171.189 206.32454 
L 171.3564 206.264074 
L 171.5238 206.081336 
L 171.5796 206.081336 
L 171.747 205.896166 
L 171.8028 205.896166 
L 172.026 205.645582 
L 173.0862 204.547728 
L 173.142 204.547728 
L 173.3094 204.215126 
L 173.3652 204.215126 
L 173.5326 204.012848 
L 173.5884 204.012848 
L 173.7558 203.808221 
L 173.8116 203.808221 
L 173.979 203.601163 
L 174.0348 203.601163 
L 174.3138 203.179079 
L 174.3696 203.179079 
L 174.537 202.963634 
L 174.5928 202.963634 
L 174.7602 202.745086 
L 174.816 202.745086 
L 175.0392 202.449804 
L 175.8762 201.498878 
L 175.932 201.498878 
L 176.0994 201.288632 
L 176.1552 201.288632 
L 176.3784 201.01767 
L 177.1038 200.277492 
L 177.2712 200.22122 
L 177.4386 200.057435 
L 177.606 199.952438 
L 177.8292 199.752592 
L 178.443 199.346526 
L 178.6104 199.263417 
L 179.4474 198.772314 
L 179.7264 198.668072 
L 180.0054 198.467722 
L 180.2844 198.371531 
L 180.5634 198.217642 
L 180.8424 198.128915 
L 181.791 197.736351 
L 182.07 197.667499 
L 182.2932 197.556799 
L 182.5722 197.450461 
L 182.9628 197.347812 
L 184.6926 196.840607 
L 185.1948 196.739216 
L 185.418 196.631619 
L 187.4268 195.864773 
L 187.7058 195.672642 
L 187.8732 195.591379 
L 190.7748 193.404224 
L 190.9422 193.165717 
L 190.998 193.165717 
L 191.1654 192.984907 
L 191.2212 192.984907 
L 191.3886 192.803092 
L 191.4444 192.803092 
L 191.6118 192.620857 
L 191.6676 192.620857 
L 191.835 192.438706 
L 191.8908 192.438706 
L 192.0582 192.135875 
L 192.2256 192.075494 
L 192.393 191.894768 
L 192.4488 191.894768 
L 192.6162 191.714294 
L 192.672 191.714294 
L 192.8394 191.533234 
L 192.8952 191.533234 
L 193.1742 191.165241 
L 193.23 191.165241 
L 193.3974 190.977136 
L 193.4532 190.977136 
L 193.6206 190.785341 
L 193.6764 190.785341 
L 193.8438 190.589017 
L 193.8996 190.589017 
L 194.067 190.387409 
L 194.1228 190.387409 
L 194.2902 189.970106 
L 194.4576 189.899157 
L 194.625 189.684216 
L 194.6808 189.684216 
L 194.8482 189.466087 
L 194.904 189.466087 
L 195.0714 189.245023 
L 195.1272 189.245023 
L 195.2946 188.794342 
L 195.462 188.718446 
L 195.6294 188.490002 
L 195.6852 188.490002 
L 195.8526 188.260133 
L 195.9084 188.260133 
L 196.0758 188.029257 
L 196.1316 188.029257 
L 196.4106 187.566499 
L 196.4664 187.566499 
L 196.6338 187.334869 
L 196.6896 187.334869 
L 196.857 187.1024 
L 196.9128 187.1024 
L 197.0802 186.868841 
L 197.136 186.868841 
L 197.3034 186.634359 
L 197.3592 186.634359 
L 197.5266 186.242298 
L 197.694 186.163718 
L 197.8614 185.927559 
L 197.9172 185.927559 
L 198.0846 185.690645 
L 198.1404 185.690645 
L 198.4194 185.215811 
L 198.4752 185.215811 
L 198.6984 184.900904 
L 199.2006 184.35856 
L 199.2564 184.35856 
L 199.4238 184.129865 
L 199.4796 184.129865 
L 199.7586 183.679519 
L 199.8144 183.679519 
L 199.9818 183.458288 
L 200.0376 183.458288 
L 200.2608 183.16745 
L 200.9862 182.396998 
L 201.042 182.396998 
L 201.2094 182.196229 
L 201.2652 182.196229 
L 201.4326 181.999821 
L 201.4884 181.999821 
L 201.6558 181.807942 
L 201.7116 181.807942 
L 201.9906 181.380742 
L 202.158 181.322289 
L 202.3254 181.151041 
L 202.4928 181.040257 
L 203.2182 180.440299 
L 203.3856 180.395516 
L 203.553 180.265947 
L 203.7204 180.183342 
L 204.5574 179.68293 
L 204.8364 179.590764 
L 205.1154 179.419012 
L 205.3944 179.338587 
L 205.6734 179.212373 
L 206.064 179.118194 
L 206.4546 178.924051 
L 206.8452 178.843626 
L 207.1242 178.744499 
L 207.4032 178.665248 
L 207.6822 178.565367 
L 208.0728 178.484271 
L 208.3518 178.380868 
L 208.6308 178.274697 
L 210.5838 177.619892 
L 210.7512 177.545422 
L 211.0302 177.421891 
L 211.4208 177.324358 
L 211.6998 177.205608 
L 211.8672 177.136337 
L 212.1462 177.024463 
L 212.5368 176.938335 
L 212.8158 176.835016 
L 213.0948 176.7561 
L 213.3738 176.662844 
L 213.876 176.559944 
L 215.1594 176.29502 
L 216.3312 176.186836 
L 217.4472 176.16 
L 220.3488 176.2707 
L 221.409 176.336952 
L 228.7188 176.447903 
L 231.0624 176.449832 
L 246.0726 176.357917 
L 275.814 176.249734 
L 276.9858 176.214511 
L 295.5672 176.323198 
L 297.0738 176.331417 
L 335.7432 176.440523 
L 338.0868 176.455786 
L 347.7402 176.247218 
L 353.8224 176.354647 
L 355.4964 176.381567 
L 359.7372 176.35364 
L 366.3774 176.284118 
L 371.79 176.39423 
L 374.4684 176.393224 
L 384.066 176.253927 
L 386.019 176.27657 
L 648 176.301729 
L 648 176.301729 
" clip-path="url(#p088239a1a2)" style="fill: none; stroke: #1f77b4; stroke-width: 3; stroke-linecap: square"/>
   </g>
   <g id="line2d_42">
    <path d="M 90 260.16 
L 91.7298 254.629592 
L 95.022 233.140325 
L 97.3098 218.246711 
L 98.5932 211.50605 
L 100.2672 206.237186 
L 102.7224 201.635664 
L 105.1218 197.664624 
L 107.0748 195.250592 
L 108.7488 193.983854 
L 110.8692 193.085716 
L 114.7752 191.658056 
L 117.4536 190.446546 
L 121.6944 188.596643 
L 124.2054 187.695129 
L 127.107 186.859269 
L 131.7384 185.60413 
L 136.1466 184.088607 
L 143.6796 181.579301 
L 146.7486 180.860975 
L 149.3154 180.460744 
L 175.095 176.75365 
L 179.0568 176.410572 
L 183.744 176.24329 
L 198.6984 176.259229 
L 531.099 176.235506 
L 648 176.243735 
L 648 176.243735 
" clip-path="url(#p088239a1a2)" style="fill: none; stroke: #ff7f0e; stroke-width: 3; stroke-linecap: square"/>
   </g>
   <g id="patch_9">
    <path d="M 90 264.36 
L 90 171.96 
" style="fill: none; stroke: #000000; stroke-width: 0.8; stroke-linejoin: miter; stroke-linecap: square"/>
   </g>
   <g id="patch_10">
    <path d="M 648 264.36 
L 648 171.96 
" style="fill: none; stroke: #000000; stroke-width: 0.8; stroke-linejoin: miter; stroke-linecap: square"/>
   </g>
   <g id="patch_11">
    <path d="M 90 264.36 
L 648 264.36 
" style="fill: none; stroke: #000000; stroke-width: 0.8; stroke-linejoin: miter; stroke-linecap: square"/>
   </g>
   <g id="patch_12">
    <path d="M 90 171.96 
L 648 171.96 
" style="fill: none; stroke: #000000; stroke-width: 0.8; stroke-linejoin: miter; stroke-linecap: square"/>
   </g>
   <g id="legend_2">
    <g id="patch_13">
     <path d="M 495.79875 216.7875 
L 639.6 216.7875 
Q 642 216.7875 642 214.3875 
L 642 180.36 
Q 642 177.96 639.6 177.96 
L 495.79875 177.96 
Q 493.39875 177.96 493.39875 180.36 
L 493.39875 214.3875 
Q 493.39875 216.7875 495.79875 216.7875 
z
" style="fill: #ffffff; opacity: 0.8; stroke: #cccccc; stroke-linejoin: miter"/>
    </g>
    <g id="line2d_43">
     <path d="M 498.19875 187.678125 
L 510.19875 187.678125 
L 522.19875 187.678125 
" style="fill: none; stroke: #1f77b4; stroke-width: 3; stroke-linecap: square"/>
    </g>
    <g id="text_23">
     <!-- Proposed method -->
     <g transform="translate(531.79875 191.878125)scale(0.12 -0.12)">
      <use xlink:href="#DejaVuSans-50"/>
      <use xlink:href="#DejaVuSans-72" x="58.552734"/>
      <use xlink:href="#DejaVuSans-6f" x="97.416016"/>
      <use xlink:href="#DejaVuSans-70" x="158.597656"/>
      <use xlink:href="#DejaVuSans-6f" x="222.074219"/>
      <use xlink:href="#DejaVuSans-73" x="283.255859"/>
      <use xlink:href="#DejaVuSans-65" x="335.355469"/>
      <use xlink:href="#DejaVuSans-64" x="396.878906"/>
      <use xlink:href="#DejaVuSans-20" x="460.355469"/>
      <use xlink:href="#DejaVuSans-6d" x="492.142578"/>
      <use xlink:href="#DejaVuSans-65" x="589.554688"/>
      <use xlink:href="#DejaVuSans-74" x="651.078125"/>
      <use xlink:href="#DejaVuSans-68" x="690.287109"/>
      <use xlink:href="#DejaVuSans-6f" x="753.666016"/>
      <use xlink:href="#DejaVuSans-64" x="814.847656"/>
     </g>
    </g>
    <g id="line2d_44">
     <path d="M 498.19875 205.291875 
L 510.19875 205.291875 
L 522.19875 205.291875 
" style="fill: none; stroke: #ff7f0e; stroke-width: 3; stroke-linecap: square"/>
    </g>
    <g id="text_24">
     <!-- fddp -->
     <g transform="translate(531.79875 209.491875)scale(0.12 -0.12)">
      <use xlink:href="#DejaVuSans-66"/>
      <use xlink:href="#DejaVuSans-64" x="35.205078"/>
      <use xlink:href="#DejaVuSans-64" x="98.681641"/>
      <use xlink:href="#DejaVuSans-70" x="162.158203"/>
     </g>
    </g>
   </g>
  </g>
  <g id="axes_3">
   <g id="patch_14">
    <path d="M 90 384.48 
L 648 384.48 
L 648 292.08 
L 90 292.08 
z
" style="fill: #ffffff"/>
   </g>
   <g id="matplotlib.axis_5">
    <g id="xtick_13">
     <g id="line2d_45">
      <path d="M 90 384.48 
L 90 292.08 
" clip-path="url(#pea5935c7d0)" style="fill: none; stroke: #b0b0b0; stroke-width: 0.8; stroke-linecap: square"/>
     </g>
     <g id="line2d_46">
      <g>
       <use xlink:href="#m40f04ce880" x="90" y="384.48" style="stroke: #000000; stroke-width: 0.8"/>
      </g>
     </g>
     <g id="text_25">
      <!-- 0 -->
      <g transform="translate(85.54625 402.117813)scale(0.14 -0.14)">
       <use xlink:href="#DejaVuSans-30"/>
      </g>
     </g>
    </g>
    <g id="xtick_14">
     <g id="line2d_47">
      <path d="M 201.6 384.48 
L 201.6 292.08 
" clip-path="url(#pea5935c7d0)" style="fill: none; stroke: #b0b0b0; stroke-width: 0.8; stroke-linecap: square"/>
     </g>
     <g id="line2d_48">
      <g>
       <use xlink:href="#m40f04ce880" x="201.6" y="384.48" style="stroke: #000000; stroke-width: 0.8"/>
      </g>
     </g>
     <g id="text_26">
      <!-- 2 -->
      <g transform="translate(197.14625 402.117813)scale(0.14 -0.14)">
       <use xlink:href="#DejaVuSans-32"/>
      </g>
     </g>
    </g>
    <g id="xtick_15">
     <g id="line2d_49">
      <path d="M 313.2 384.48 
L 313.2 292.08 
" clip-path="url(#pea5935c7d0)" style="fill: none; stroke: #b0b0b0; stroke-width: 0.8; stroke-linecap: square"/>
     </g>
     <g id="line2d_50">
      <g>
       <use xlink:href="#m40f04ce880" x="313.2" y="384.48" style="stroke: #000000; stroke-width: 0.8"/>
      </g>
     </g>
     <g id="text_27">
      <!-- 4 -->
      <g transform="translate(308.74625 402.117813)scale(0.14 -0.14)">
       <use xlink:href="#DejaVuSans-34"/>
      </g>
     </g>
    </g>
    <g id="xtick_16">
     <g id="line2d_51">
      <path d="M 424.8 384.48 
L 424.8 292.08 
" clip-path="url(#pea5935c7d0)" style="fill: none; stroke: #b0b0b0; stroke-width: 0.8; stroke-linecap: square"/>
     </g>
     <g id="line2d_52">
      <g>
       <use xlink:href="#m40f04ce880" x="424.8" y="384.48" style="stroke: #000000; stroke-width: 0.8"/>
      </g>
     </g>
     <g id="text_28">
      <!-- 6 -->
      <g transform="translate(420.34625 402.117813)scale(0.14 -0.14)">
       <use xlink:href="#DejaVuSans-36"/>
      </g>
     </g>
    </g>
    <g id="xtick_17">
     <g id="line2d_53">
      <path d="M 536.4 384.48 
L 536.4 292.08 
" clip-path="url(#pea5935c7d0)" style="fill: none; stroke: #b0b0b0; stroke-width: 0.8; stroke-linecap: square"/>
     </g>
     <g id="line2d_54">
      <g>
       <use xlink:href="#m40f04ce880" x="536.4" y="384.48" style="stroke: #000000; stroke-width: 0.8"/>
      </g>
     </g>
     <g id="text_29">
      <!-- 8 -->
      <g transform="translate(531.94625 402.117813)scale(0.14 -0.14)">
       <use xlink:href="#DejaVuSans-38"/>
      </g>
     </g>
    </g>
    <g id="xtick_18">
     <g id="line2d_55">
      <path d="M 648 384.48 
L 648 292.08 
" clip-path="url(#pea5935c7d0)" style="fill: none; stroke: #b0b0b0; stroke-width: 0.8; stroke-linecap: square"/>
     </g>
     <g id="line2d_56">
      <g>
       <use xlink:href="#m40f04ce880" x="648" y="384.48" style="stroke: #000000; stroke-width: 0.8"/>
      </g>
     </g>
     <g id="text_30">
      <!-- 10 -->
      <g transform="translate(639.0925 402.117813)scale(0.14 -0.14)">
       <use xlink:href="#DejaVuSans-31"/>
       <use xlink:href="#DejaVuSans-30" x="63.623047"/>
      </g>
     </g>
    </g>
    <g id="text_31">
     <!--  time ($s$)  -->
     <g transform="translate(335.1 420.427031)scale(0.15 -0.15)">
      <defs>
       <path id="DejaVuSans-69" d="M 603 3500 
L 1178 3500 
L 1178 0 
L 603 0 
L 603 3500 
z
M 603 4863 
L 1178 4863 
L 1178 4134 
L 603 4134 
L 603 4863 
z
" transform="scale(0.015625)"/>
       <path id="DejaVuSans-Oblique-73" d="M 3200 3397 
L 3091 2853 
Q 2863 2978 2609 3040 
Q 2356 3103 2088 3103 
Q 1634 3103 1373 2948 
Q 1113 2794 1113 2528 
Q 1113 2219 1719 2053 
Q 1766 2041 1788 2034 
L 1972 1978 
Q 2547 1819 2739 1644 
Q 2931 1469 2931 1166 
Q 2931 609 2489 259 
Q 2047 -91 1331 -91 
Q 1053 -91 747 -37 
Q 441 16 72 128 
L 184 722 
Q 500 559 806 475 
Q 1113 391 1394 391 
Q 1816 391 2080 572 
Q 2344 753 2344 1031 
Q 2344 1331 1650 1516 
L 1591 1531 
L 1394 1581 
Q 956 1697 753 1886 
Q 550 2075 550 2369 
Q 550 2928 970 3256 
Q 1391 3584 2113 3584 
Q 2397 3584 2667 3537 
Q 2938 3491 3200 3397 
z
" transform="scale(0.015625)"/>
      </defs>
      <use xlink:href="#DejaVuSans-20" transform="translate(0 0.015625)"/>
      <use xlink:href="#DejaVuSans-74" transform="translate(31.787109 0.015625)"/>
      <use xlink:href="#DejaVuSans-69" transform="translate(70.996094 0.015625)"/>
      <use xlink:href="#DejaVuSans-6d" transform="translate(98.779297 0.015625)"/>
      <use xlink:href="#DejaVuSans-65" transform="translate(196.191406 0.015625)"/>
      <use xlink:href="#DejaVuSans-20" transform="translate(257.714844 0.015625)"/>
      <use xlink:href="#DejaVuSans-28" transform="translate(289.501953 0.015625)"/>
      <use xlink:href="#DejaVuSans-Oblique-73" transform="translate(328.515625 0.015625)"/>
      <use xlink:href="#DejaVuSans-29" transform="translate(380.615234 0.015625)"/>
      <use xlink:href="#DejaVuSans-20" transform="translate(419.628906 0.015625)"/>
     </g>
    </g>
   </g>
   <g id="matplotlib.axis_6">
    <g id="ytick_7">
     <g id="line2d_57">
      <path d="M 90 378.791667 
L 648 378.791667 
" clip-path="url(#pea5935c7d0)" style="fill: none; stroke: #b0b0b0; stroke-width: 0.8; stroke-linecap: square"/>
     </g>
     <g id="line2d_58">
      <g>
       <use xlink:href="#m9eef8fe685" x="90" y="378.791667" style="stroke: #000000; stroke-width: 0.8"/>
      </g>
     </g>
     <g id="text_32">
      <!-- 0.45 -->
      <g transform="translate(51.828125 384.110573)scale(0.14 -0.14)">
       <use xlink:href="#DejaVuSans-30"/>
       <use xlink:href="#DejaVuSans-2e" x="63.623047"/>
       <use xlink:href="#DejaVuSans-34" x="95.410156"/>
       <use xlink:href="#DejaVuSans-35" x="159.033203"/>
      </g>
     </g>
    </g>
    <g id="ytick_8">
     <g id="line2d_59">
      <path d="M 90 351.412468 
L 648 351.412468 
" clip-path="url(#pea5935c7d0)" style="fill: none; stroke: #b0b0b0; stroke-width: 0.8; stroke-linecap: square"/>
     </g>
     <g id="line2d_60">
      <g>
       <use xlink:href="#m9eef8fe685" x="90" y="351.412468" style="stroke: #000000; stroke-width: 0.8"/>
      </g>
     </g>
     <g id="text_33">
      <!-- 0.50 -->
      <g transform="translate(51.828125 356.731374)scale(0.14 -0.14)">
       <use xlink:href="#DejaVuSans-30"/>
       <use xlink:href="#DejaVuSans-2e" x="63.623047"/>
       <use xlink:href="#DejaVuSans-35" x="95.410156"/>
       <use xlink:href="#DejaVuSans-30" x="159.033203"/>
      </g>
     </g>
    </g>
    <g id="ytick_9">
     <g id="line2d_61">
      <path d="M 90 324.033269 
L 648 324.033269 
" clip-path="url(#pea5935c7d0)" style="fill: none; stroke: #b0b0b0; stroke-width: 0.8; stroke-linecap: square"/>
     </g>
     <g id="line2d_62">
      <g>
       <use xlink:href="#m9eef8fe685" x="90" y="324.033269" style="stroke: #000000; stroke-width: 0.8"/>
      </g>
     </g>
     <g id="text_34">
      <!-- 0.55 -->
      <g transform="translate(51.828125 329.352175)scale(0.14 -0.14)">
       <use xlink:href="#DejaVuSans-30"/>
       <use xlink:href="#DejaVuSans-2e" x="63.623047"/>
       <use xlink:href="#DejaVuSans-35" x="95.410156"/>
       <use xlink:href="#DejaVuSans-35" x="159.033203"/>
      </g>
     </g>
    </g>
    <g id="ytick_10">
     <g id="line2d_63">
      <path d="M 90 296.65407 
L 648 296.65407 
" clip-path="url(#pea5935c7d0)" style="fill: none; stroke: #b0b0b0; stroke-width: 0.8; stroke-linecap: square"/>
     </g>
     <g id="line2d_64">
      <g>
       <use xlink:href="#m9eef8fe685" x="90" y="296.65407" style="stroke: #000000; stroke-width: 0.8"/>
      </g>
     </g>
     <g id="text_35">
      <!-- 0.60 -->
      <g transform="translate(51.828125 301.972977)scale(0.14 -0.14)">
       <use xlink:href="#DejaVuSans-30"/>
       <use xlink:href="#DejaVuSans-2e" x="63.623047"/>
       <use xlink:href="#DejaVuSans-36" x="95.410156"/>
       <use xlink:href="#DejaVuSans-30" x="159.033203"/>
      </g>
     </g>
    </g>
    <g id="text_36">
     <!--  z ($m$)  -->
     <g transform="translate(44.708594 362.58)rotate(-90)scale(0.15 -0.15)">
      <defs>
       <path id="DejaVuSans-7a" d="M 353 3500 
L 3084 3500 
L 3084 2975 
L 922 459 
L 3084 459 
L 3084 0 
L 275 0 
L 275 525 
L 2438 3041 
L 353 3041 
L 353 3500 
z
" transform="scale(0.015625)"/>
      </defs>
      <use xlink:href="#DejaVuSans-20" transform="translate(0 0.125)"/>
      <use xlink:href="#DejaVuSans-7a" transform="translate(31.787109 0.125)"/>
      <use xlink:href="#DejaVuSans-20" transform="translate(84.277344 0.125)"/>
      <use xlink:href="#DejaVuSans-28" transform="translate(116.064453 0.125)"/>
      <use xlink:href="#DejaVuSans-Oblique-6d" transform="translate(155.078125 0.125)"/>
      <use xlink:href="#DejaVuSans-29" transform="translate(252.490234 0.125)"/>
      <use xlink:href="#DejaVuSans-20" transform="translate(291.503906 0.125)"/>
     </g>
    </g>
   </g>
   <g id="line2d_65">
    <path d="M 90 380.28 
L 92.3436 380.175411 
L 94.6872 379.774032 
L 95.1336 379.636589 
L 98.2584 378.570443 
L 98.4258 378.457093 
L 98.7048 378.370575 
L 98.9838 378.223822 
L 99.2628 378.133471 
L 101.5506 377.008186 
L 101.718 376.901407 
L 101.997 376.721252 
L 102.276 376.612283 
L 102.555 376.427747 
L 102.7224 376.390511 
L 102.8898 376.239925 
L 103.0572 376.163811 
L 104.4522 375.323817 
L 104.6196 375.240037 
L 104.787 375.113545 
L 104.9544 375.028122 
L 105.1776 374.855633 
L 106.6842 373.816319 
L 106.8516 373.723777 
L 108.0234 372.881593 
L 108.1908 372.787956 
L 108.3582 372.550305 
L 108.5256 372.502665 
L 108.693 372.357007 
L 108.8604 372.25899 
L 110.0322 371.337954 
L 110.1996 371.23227 
L 111.2598 370.361611 
L 111.3156 370.361611 
L 111.483 370.194598 
L 111.5388 370.194598 
L 111.7062 369.913688 
L 111.762 369.913688 
L 111.9294 369.743937 
L 111.9852 369.743937 
L 112.1526 369.574186 
L 112.2084 369.574186 
L 112.3758 369.40334 
L 112.4316 369.40334 
L 112.599 369.231946 
L 112.6548 369.231946 
L 112.8222 368.942821 
L 112.9896 368.88423 
L 113.157 368.707908 
L 113.2128 368.707908 
L 113.3802 368.529943 
L 113.436 368.529943 
L 113.6034 368.34924 
L 113.6592 368.34924 
L 113.9382 367.919387 
L 113.994 367.919387 
L 114.1614 367.732113 
L 114.2172 367.732113 
L 114.3846 367.543197 
L 114.4404 367.543197 
L 114.6078 367.353185 
L 114.6636 367.353185 
L 114.9426 366.904166 
L 115.11 366.839551 
L 115.2774 366.645707 
L 115.3332 366.645707 
L 115.5006 366.450767 
L 115.5564 366.450767 
L 115.7238 366.255279 
L 115.7796 366.255279 
L 116.0586 365.862662 
L 116.1144 365.862662 
L 116.2818 365.665531 
L 116.3376 365.665531 
L 116.505 365.468401 
L 116.5608 365.468401 
L 116.784 365.203918 
L 117.621 364.336545 
L 117.6768 364.336545 
L 117.8442 364.135582 
L 117.9 364.135582 
L 118.0674 363.934618 
L 118.1232 363.934618 
L 118.2906 363.600592 
L 118.458 363.533787 
L 118.6254 363.333919 
L 118.6812 363.333919 
L 118.9044 363.06834 
L 119.6298 362.341149 
L 119.6856 362.341149 
L 119.9088 362.078309 
L 120.7458 361.236672 
L 120.8016 361.236672 
L 120.969 361.04447 
L 121.0248 361.04447 
L 121.1922 360.852816 
L 121.248 360.852816 
L 121.4154 360.661161 
L 121.4712 360.661161 
L 121.6386 360.34192 
L 121.806 360.2784 
L 122.0292 360.023774 
L 122.5314 359.578588 
L 122.5872 359.578588 
L 122.7546 359.261537 
L 122.922 359.198565 
L 123.0894 359.0091 
L 123.1452 359.0091 
L 123.3126 358.821279 
L 123.3684 358.821279 
L 123.5358 358.634005 
L 123.5916 358.634005 
L 123.8706 358.203057 
L 124.038 358.142275 
L 124.2054 357.961025 
L 124.2612 357.961025 
L 124.4286 357.780322 
L 124.4844 357.780322 
L 124.6518 357.601262 
L 124.7076 357.601262 
L 124.9866 357.245332 
L 125.0424 357.245332 
L 125.2098 357.068463 
L 125.2656 357.068463 
L 125.433 356.892688 
L 125.4888 356.892688 
L 125.6562 356.717462 
L 125.712 356.717462 
L 125.8794 356.54333 
L 125.9352 356.54333 
L 126.1026 356.197257 
L 126.27 356.13976 
L 126.4374 355.968914 
L 126.4932 355.968914 
L 126.6606 355.799163 
L 126.7164 355.799163 
L 126.8838 355.630507 
L 126.9396 355.630507 
L 127.107 355.351787 
L 127.1628 355.351787 
L 127.3302 355.185322 
L 127.4976 355.075257 
L 128.3346 354.365588 
L 128.502 354.257714 
L 129.1158 353.774198 
L 129.1716 353.774198 
L 129.339 353.560092 
L 129.5064 353.453313 
L 130.2318 352.867399 
L 130.2876 352.867399 
L 130.455 352.656031 
L 130.6224 352.550895 
L 131.1246 352.182371 
L 131.292 352.077235 
L 132.3522 351.208767 
L 132.408 351.208767 
L 132.5754 350.961806 
L 132.7428 350.913071 
L 132.9102 350.767414 
L 133.0776 350.671039 
L 133.5798 350.336465 
L 133.6356 350.336465 
L 133.803 350.099909 
L 133.9704 350.052817 
L 134.1378 349.91154 
L 134.3052 349.817356 
L 134.4726 349.676627 
L 134.64 349.583538 
L 134.919 349.305365 
L 135.0864 349.259368 
L 135.2538 349.121924 
L 135.4212 349.030478 
L 136.3698 348.349831 
L 136.5372 348.258932 
L 136.7046 348.123131 
L 136.872 348.077682 
L 137.0394 347.850982 
L 137.2068 347.760083 
L 137.9322 347.303945 
L 137.988 347.303945 
L 138.1554 347.027416 
L 138.3228 346.981418 
L 138.4902 346.842332 
L 138.6576 346.74979 
L 139.941 345.814517 
L 140.1084 345.719237 
L 140.2758 345.526488 
L 140.4432 345.429565 
L 141.1686 344.936192 
L 141.2244 344.936192 
L 141.3918 344.683756 
L 141.5592 344.581905 
L 142.0614 344.223238 
L 142.2288 344.120292 
L 143.0658 343.447311 
L 143.2332 343.343818 
L 144.1818 342.568987 
L 144.3492 342.465493 
L 145.4094 341.634261 
L 145.5768 341.529672 
L 146.4138 340.850668 
L 146.5812 340.74608 
L 147.4182 340.063243 
L 147.5856 339.957559 
L 147.753 339.799307 
L 147.9204 339.693623 
L 148.1436 339.482256 
L 148.7574 339.006405 
L 148.9248 338.900722 
L 149.7618 338.217885 
L 149.9292 338.113844 
L 150.9894 337.22621 
L 151.1568 337.121621 
L 151.3242 336.912444 
L 151.4916 336.808403 
L 151.9938 336.445355 
L 152.1612 336.342409 
L 153.2214 335.476679 
L 153.3888 335.374829 
L 153.5562 335.171675 
L 153.7236 335.070372 
L 154.3374 334.616425 
L 154.5048 334.516764 
L 154.728 334.317991 
L 155.3418 333.878282 
L 155.5092 333.781359 
L 156.681 332.90851 
L 156.7368 332.90851 
L 156.9042 332.714666 
L 157.0716 332.617196 
L 157.797 332.130941 
L 157.8528 332.130941 
L 158.0202 331.885076 
L 158.1876 331.786511 
L 158.913 331.290947 
L 158.9688 331.290947 
L 159.1362 331.043439 
L 159.3036 330.994157 
L 159.471 330.846309 
L 159.6384 330.748292 
L 160.6986 329.921987 
L 160.866 329.825613 
L 161.9262 329.020664 
L 162.0936 328.928122 
L 162.3726 328.651045 
L 162.54 328.605048 
L 162.7074 328.467057 
L 162.8748 328.375063 
L 163.8792 327.690583 
L 164.8278 327.026363 
L 164.9952 326.939845 
L 165.9438 326.302457 
L 166.1112 326.260293 
L 166.3344 326.09109 
L 167.3946 325.408253 
L 167.562 325.322282 
L 168.7338 324.552926 
L 168.9012 324.468598 
L 169.0686 324.299943 
L 169.236 324.216162 
L 169.9614 323.789594 
L 170.0172 323.789594 
L 170.1846 323.571108 
L 170.352 323.482947 
L 171.5238 322.664857 
L 171.6912 322.572315 
L 172.863 321.698371 
L 173.0304 321.607472 
L 174.537 320.53585 
L 174.7044 320.448237 
L 175.8762 319.662454 
L 176.0436 319.575388 
L 177.2154 318.803842 
L 177.3828 318.718967 
L 178.443 318.036677 
L 178.6104 317.951254 
L 179.6706 317.276083 
L 179.838 317.193945 
L 180.0054 317.031861 
L 180.1728 316.952461 
L 180.8982 316.560391 
L 180.954 316.560391 
L 181.1214 316.367094 
L 181.2888 316.328763 
L 181.4562 316.21377 
L 181.6236 316.137656 
L 183.0186 315.298757 
L 183.0744 315.298757 
L 183.2418 315.110936 
L 183.4092 315.036465 
L 184.1346 314.66356 
L 184.1904 314.66356 
L 184.3578 314.441241 
L 184.6368 314.330629 
L 185.9202 313.627531 
L 186.0876 313.560178 
L 186.3666 313.359215 
L 186.6456 313.259555 
L 186.9246 313.096374 
L 187.2036 313.000547 
L 188.3754 312.452963 
L 188.5428 312.394919 
L 188.8218 312.250905 
L 189.1008 312.164934 
L 189.3798 312.022015 
L 189.6588 311.936044 
L 189.8262 311.821599 
L 190.1052 311.735628 
L 190.3842 311.591614 
L 190.6632 311.505095 
L 190.9422 311.330964 
L 191.2212 311.243898 
L 191.5002 311.097145 
L 191.7792 311.008984 
L 193.3974 310.2462 
L 193.6764 310.151468 
L 193.9554 309.992121 
L 194.1228 309.960361 
L 194.2902 309.766516 
L 194.5692 309.669594 
L 195.8526 309.039325 
L 196.1316 308.947878 
L 196.4106 308.767176 
L 196.6896 308.679015 
L 196.9686 308.534452 
L 197.2476 308.448482 
L 198.9774 307.690078 
L 199.2564 307.608488 
L 199.5354 307.47433 
L 199.8144 307.368099 
L 200.0934 307.235583 
L 200.3724 307.155088 
L 200.6514 307.01874 
L 200.8188 306.962886 
L 201.0978 306.819419 
L 201.3768 306.731258 
L 203.7762 305.539716 
L 204.0552 305.433484 
L 204.2784 305.221569 
L 205.0038 304.875496 
L 205.1712 304.773098 
L 205.4502 304.603347 
L 205.7292 304.502044 
L 207.0126 303.827421 
L 207.2916 303.72557 
L 207.459 303.557462 
L 207.738 303.457254 
L 208.9098 302.87572 
L 209.1888 302.783725 
L 209.4678 302.633687 
L 209.6352 302.546622 
L 210.528 302.214786 
L 212.0346 301.599301 
L 212.3136 301.531401 
L 212.5926 301.425717 
L 212.8716 301.367673 
L 213.0948 301.29594 
L 213.4296 301.21654 
L 214.713 300.993673 
L 216.108 300.885252 
L 217.224 300.850206 
L 225.3708 300.424734 
L 225.9846 300.325073 
L 226.4868 300.215009 
L 226.8774 300.125205 
L 227.3796 300.014593 
L 227.7144 299.933551 
L 229.1094 299.623618 
L 229.7232 299.514102 
L 230.2254 299.417727 
L 230.8392 299.314233 
L 231.3414 299.223882 
L 231.8436 299.125865 
L 232.29 299.036061 
L 234.801 298.57609 
L 235.9728 298.469859 
L 236.8098 298.391554 
L 238.986 298.284228 
L 241.9992 297.922823 
L 242.613 297.79195 
L 243.3384 297.687361 
L 243.8406 297.605771 
L 244.4544 297.514872 
L 244.9566 297.434925 
L 245.682 297.337455 
L 246.1842 297.265174 
L 247.0212 297.162228 
L 247.8582 297.078448 
L 248.9184 296.971669 
L 252.4896 296.695687 
L 255.3354 296.637643 
L 259.1856 296.743874 
L 260.5806 296.770706 
L 318.6684 296.88077 
L 322.7976 296.852843 
L 326.313 296.825464 
L 351.0324 296.716495 
L 353.7108 296.695687 
L 365.7636 296.805751 
L 369.8928 296.776182 
L 390.3714 296.68583 
L 648 296.660641 
L 648 296.660641 
" clip-path="url(#pea5935c7d0)" style="fill: none; stroke: #1f77b4; stroke-width: 3; stroke-linecap: square"/>
   </g>
   <g id="line2d_66">
    <path d="M 90 380.279971 
L 91.7856 377.864269 
L 96.8634 365.205881 
L 99.9324 358.711809 
L 101.6064 355.555667 
L 103.2804 352.645624 
L 105.0102 349.864223 
L 107.6886 345.926441 
L 110.4786 342.161388 
L 113.6592 338.315001 
L 117.0072 334.776272 
L 120.69 331.363964 
L 124.2054 328.46372 
L 127.944 325.694395 
L 141.615 316.011691 
L 143.9028 314.436083 
L 149.2596 310.534462 
L 152.1612 308.778621 
L 157.0158 306.209119 
L 166.6692 301.471111 
L 175.5414 297.387848 
L 177.7176 296.750753 
L 179.6148 296.464908 
L 181.9026 296.334277 
L 195.0156 296.306008 
L 257.2326 296.423752 
L 279.2736 296.359963 
L 303.2118 296.354344 
L 648 296.363699 
L 648 296.363699 
" clip-path="url(#pea5935c7d0)" style="fill: none; stroke: #ff7f0e; stroke-width: 3; stroke-linecap: square"/>
   </g>
   <g id="patch_15">
    <path d="M 90 384.48 
L 90 292.08 
" style="fill: none; stroke: #000000; stroke-width: 0.8; stroke-linejoin: miter; stroke-linecap: square"/>
   </g>
   <g id="patch_16">
    <path d="M 648 384.48 
L 648 292.08 
" style="fill: none; stroke: #000000; stroke-width: 0.8; stroke-linejoin: miter; stroke-linecap: square"/>
   </g>
   <g id="patch_17">
    <path d="M 90 384.48 
L 648 384.48 
" style="fill: none; stroke: #000000; stroke-width: 0.8; stroke-linejoin: miter; stroke-linecap: square"/>
   </g>
   <g id="patch_18">
    <path d="M 90 292.08 
L 648 292.08 
" style="fill: none; stroke: #000000; stroke-width: 0.8; stroke-linejoin: miter; stroke-linecap: square"/>
   </g>
   <g id="legend_3">
    <g id="patch_19">
     <path d="M 495.79875 336.9075 
L 639.6 336.9075 
Q 642 336.9075 642 334.5075 
L 642 300.48 
Q 642 298.08 639.6 298.08 
L 495.79875 298.08 
Q 493.39875 298.08 493.39875 300.48 
L 493.39875 334.5075 
Q 493.39875 336.9075 495.79875 336.9075 
z
" style="fill: #ffffff; opacity: 0.8; stroke: #cccccc; stroke-linejoin: miter"/>
    </g>
    <g id="line2d_67">
     <path d="M 498.19875 307.798125 
L 510.19875 307.798125 
L 522.19875 307.798125 
" style="fill: none; stroke: #1f77b4; stroke-width: 3; stroke-linecap: square"/>
    </g>
    <g id="text_37">
     <!-- Proposed method -->
     <g transform="translate(531.79875 311.998125)scale(0.12 -0.12)">
      <use xlink:href="#DejaVuSans-50"/>
      <use xlink:href="#DejaVuSans-72" x="58.552734"/>
      <use xlink:href="#DejaVuSans-6f" x="97.416016"/>
      <use xlink:href="#DejaVuSans-70" x="158.597656"/>
      <use xlink:href="#DejaVuSans-6f" x="222.074219"/>
      <use xlink:href="#DejaVuSans-73" x="283.255859"/>
      <use xlink:href="#DejaVuSans-65" x="335.355469"/>
      <use xlink:href="#DejaVuSans-64" x="396.878906"/>
      <use xlink:href="#DejaVuSans-20" x="460.355469"/>
      <use xlink:href="#DejaVuSans-6d" x="492.142578"/>
      <use xlink:href="#DejaVuSans-65" x="589.554688"/>
      <use xlink:href="#DejaVuSans-74" x="651.078125"/>
      <use xlink:href="#DejaVuSans-68" x="690.287109"/>
      <use xlink:href="#DejaVuSans-6f" x="753.666016"/>
      <use xlink:href="#DejaVuSans-64" x="814.847656"/>
     </g>
    </g>
    <g id="line2d_68">
     <path d="M 498.19875 325.411875 
L 510.19875 325.411875 
L 522.19875 325.411875 
" style="fill: none; stroke: #ff7f0e; stroke-width: 3; stroke-linecap: square"/>
    </g>
    <g id="text_38">
     <!-- fddp -->
     <g transform="translate(531.79875 329.611875)scale(0.12 -0.12)">
      <use xlink:href="#DejaVuSans-66"/>
      <use xlink:href="#DejaVuSans-64" x="35.205078"/>
      <use xlink:href="#DejaVuSans-64" x="98.681641"/>
      <use xlink:href="#DejaVuSans-70" x="162.158203"/>
     </g>
    </g>
   </g>
  </g>
 </g>
 <defs>
  <clipPath id="pabc0d6f69a">
   <rect x="90" y="51.84" width="558" height="92.4"/>
  </clipPath>
  <clipPath id="p088239a1a2">
   <rect x="90" y="171.96" width="558" height="92.4"/>
  </clipPath>
  <clipPath id="pea5935c7d0">
   <rect x="90" y="292.08" width="558" height="92.4"/>
  </clipPath>
 </defs>
</svg>
